<svg width="25" height="25" viewBox="0 0 25 25" fill="none" xmlns="http://www.w3.org/2000/svg">
<g clip-path="url(#clip0_1_27)">
<g clip-path="url(#clip1_1_27)">
<mask id="mask0_1_27" style="mask-type:luminance" maskUnits="userSpaceOnUse" x="0" y="0" width="25" height="25">
<path d="M0 0H25V25H0V0Z" fill="white"/>
</mask>
<g mask="url(#mask0_1_27)">
<path d="M12.5 25C12.1628 24.9999 11.8258 24.9864 11.4897 24.9596L17.0926 15.2559L17.139 15.1772C17.7028 14.2005 17.9442 13.0707 17.8286 11.9488C17.7131 10.8269 17.2466 9.77006 16.4956 8.92869H24.4824C24.8191 10.0603 25 11.2596 25 12.5C25 19.4037 19.4037 25 12.5 25ZM12.6618 7.14266C11.5058 7.10726 10.3695 7.44696 9.42265 8.11097C8.47581 8.77499 7.76932 9.72763 7.40882 10.8265L3.41691 3.91177C4.58394 2.67456 5.99182 1.68926 7.5539 1.01653C9.11599 0.343795 10.7992 -0.0021418 12.5 9.97689e-06C17.4868 9.97689e-06 21.7912 2.91913 23.7971 7.14266H12.6618ZM2.21324 5.39707L7.83971 15.1441C8.30978 15.974 8.99384 16.6627 9.82059 17.1382C10.9609 17.7987 12.3053 18.014 13.5949 17.7427L9.6 24.6618C4.09485 23.3537 0 18.4052 0 12.5C0 9.86177 0.817647 7.41472 2.21324 5.39707ZM16.0706 12.5C16.0706 13.4472 15.6943 14.3556 15.0246 15.0253C14.3548 15.6951 13.4464 16.0713 12.4993 16.0713C11.5521 16.0713 10.6437 15.6951 9.97396 15.0253C9.3042 14.3556 8.92794 13.4472 8.92794 12.5C8.92794 11.5528 9.3042 10.6445 9.97396 9.9747C10.6437 9.30495 11.5521 8.92869 12.4993 8.92869C13.4464 8.92869 14.3548 9.30495 15.0246 9.9747C15.6943 10.6445 16.0706 11.5528 16.0706 12.5Z" fill="white"/>
</g>
</g>
</g>
<defs>
<clipPath id="clip0_1_27">
<rect width="25" height="25" fill="white"/>
</clipPath>
<clipPath id="clip1_1_27">
<rect width="25" height="25" fill="white"/>
</clipPath>
</defs>
</svg>
